<?xml version="1.0" standalone="no"?>
<!DOCTYPE svg PUBLIC "-//W3C//DTD SVG 20010904//EN"
 "http://www.w3.org/TR/2001/REC-SVG-20010904/DTD/svg10.dtd">
<svg version="1.0" xmlns="http://www.w3.org/2000/svg"
 width="265.000000pt" height="265.000000pt" viewBox="0 0 265.000000 265.000000"
 preserveAspectRatio="xMidYMid meet">
<metadata>
Created by potrace 1.11, written by Peter Selinger 2001-2013
</metadata>
<g transform="translate(0.000000,265.000000) scale(0.100000,-0.100000)"
fill="#000000" stroke="none">
<path d="M790 2110 l0 -80 135 0 c128 0 135 -1 135 -20 0 -11 -59 -137 -130
-280 l-130 -260 175 0 175 0 110 220 c61 121 113 220 118 220 8 0 412 -792
412 -809 0 -8 -169 -11 -623 -11 l-623 0 -122 -245 -122 -245 -90 0 -90 0 0
-70 0 -70 400 0 400 0 0 70 0 70 -110 0 c-63 0 -110 4 -110 10 0 5 15 44 33
87 19 43 54 124 78 181 l43 102 521 0 520 -1 74 -170 c40 -93 75 -179 78 -189
5 -19 0 -20 -106 -20 l-111 0 0 -70 0 -70 405 0 405 0 0 70 0 70 -117 0 -118
0 -189 373 c-104 204 -260 512 -347 684 -103 201 -159 322 -159 342 l0 31 135
0 135 0 0 80 0 80 -595 0 -595 0 0 -80z"/>
<path d="M1290 1556 l-92 -176 -347 0 -347 0 -67 68 -67 68 0 97 0 97 -175 0
-175 0 0 -138 0 -137 138 -138 137 -137 566 0 566 0 61 124 62 124 -80 157
c-44 87 -81 160 -84 162 -2 3 -45 -75 -96 -171z"/>
</g>
</svg>
